<?xml version="1.0" encoding="utf-8"?>
<!-- Generator: Adobe Illustrator 27.7.0, SVG Export Plug-In . SVG Version: 6.00 Build 0)  -->
<svg version="1.0" xmlns="http://www.w3.org/2000/svg" xmlns:xlink="http://www.w3.org/1999/xlink" x="0px" y="0px" width="792px"
	 height="612px" viewBox="0 0 792 612" enable-background="new 0 0 792 612" xml:space="preserve">
<g id="layout">
	<rect x="179.4" y="107.6" fill="none" stroke="#000000" stroke-miterlimit="10" width="19.8" height="396.9"/>
	<rect x="235.3" y="107.6" fill="none" stroke="#000000" stroke-miterlimit="10" width="19.8" height="396.9"/>
	<rect x="292" y="107.6" fill="none" stroke="#000000" stroke-miterlimit="10" width="19.8" height="396.9"/>
	<rect x="348.7" y="107.6" fill="none" stroke="#000000" stroke-miterlimit="10" width="19.8" height="396.9"/>
	<rect x="405.4" y="107.6" fill="none" stroke="#000000" stroke-miterlimit="10" width="19.8" height="396.9"/>
	<rect x="462.4" y="107.6" fill="none" stroke="#000000" stroke-miterlimit="10" width="19.8" height="396.9"/>
	<rect x="519.1" y="107.6" fill="none" stroke="#000000" stroke-miterlimit="10" width="19.8" height="396.9"/>
	<rect x="575.8" y="107.6" fill="none" stroke="#000000" stroke-miterlimit="10" width="19.8" height="396.9"/>
	<rect x="199.2" y="107.6" fill="none" stroke="#000000" stroke-miterlimit="10" width="36.1" height="396.9"/>
	<rect x="255.2" y="107.6" fill="none" stroke="#000000" stroke-miterlimit="10" width="36.9" height="396.9"/>
	<rect x="311.8" y="107.6" fill="none" stroke="#000000" stroke-miterlimit="10" width="36.9" height="396.9"/>
	<rect x="368.5" y="107.6" fill="none" stroke="#000000" stroke-miterlimit="10" width="36.9" height="396.9"/>
	<rect x="425.2" y="107.6" fill="none" stroke="#000000" stroke-miterlimit="10" width="37.2" height="396.9"/>
	<rect x="482.2" y="107.6" fill="none" stroke="#000000" stroke-miterlimit="10" width="36.9" height="396.9"/>
	<rect x="538.9" y="107.6" fill="none" stroke="#000000" stroke-miterlimit="10" width="36.9" height="396.9"/>
	<rect x="595.6" y="107.6" fill="none" stroke="#000000" stroke-miterlimit="10" width="36.9" height="396.9"/>
	<rect x="159.5" y="107.6" fill="none" stroke="#000000" stroke-miterlimit="10" width="19.8" height="396.9"/>
</g>
<g id="mask">
	<path stroke="#FFFFFF" stroke-miterlimit="10" d="M426.3,241.5"/>
	<polyline points="179.4,504.4 235.3,504.4 235.3,371.8 199.2,342.8 179.4,342.8 	"/>
	<path stroke="#FFFFFF" stroke-miterlimit="10" d="M466,357.4"/>
	<path display="none" fill="#FFFFFF" d="M289.3,177c-1.3,0-2.4,1.1-2.4,2.4v125.2c0,1.3,1.1,2.4,2.4,2.4c1.3,0,2.4-1.1,2.4-2.4
		V179.5C291.8,178.1,290.7,177,289.3,177z"/>
	<polygon points="242.6,230.2 159.5,230.2 159.5,250.2 235.3,250.2 292,295.7 292,342.8 292,342.8 255.9,371.8 255.9,504.4 
		311.8,504.4 311.8,342.8 311.8,295.7 311.8,295.7 311.8,285.8 	"/>
	<polygon points="469.7,147.5 159.5,147.5 159.5,167.5 462.4,167.5 519.1,213 519.1,342.8 519.1,342.8 483,371.8 483,504.4 
		538.9,504.4 538.9,342.8 538.9,213 539,213 539,203.1 	"/>
	<polygon points="368.7,342.8 368.5,342.8 368.7,245.8 299.5,190.3 159.5,190.3 159.5,210.2 292.2,210.2 348.9,255.8 348.7,342.8 
		348.9,342.8 348.9,504.4 404.8,504.4 404.8,371.8 	"/>
	<polygon points="596.4,342.8 596.2,342.8 596.4,163.1 527.2,107.6 159.5,107.6 159.5,127.6 519.8,127.6 576.5,173.1 576.4,342.8 
		576.5,342.8 576.5,504.4 632.5,504.4 632.5,371.8 	"/>
</g>
<g id="black-keys">
	<path d="M217.3,177c-1.3,0-2.4,1.1-2.4,2.4v125.2c0,1.3,1.1,2.4,2.4,2.4c1.3,0,2.4-1.1,2.4-2.4V179.5
		C219.7,178.1,218.6,177,217.3,177z"/>
	<path d="M273.6,177c-1.3,0-2.4,1.1-2.4,2.4v125.2c0,1.3,1.1,2.4,2.4,2.4c1.3,0,2.4-1.1,2.4-2.4V179.5
		C276,178.1,274.9,177,273.6,177z"/>
	<path d="M387,177c-1.3,0-2.4,1.1-2.4,2.4v125.2c0,1.3,1.1,2.4,2.4,2.4c1.3,0,2.4-1.1,2.4-2.4V179.5C389.4,178.1,388.3,177,387,177z
		"/>
	<path d="M443.8,177c-1.3,0-2.4,1.1-2.4,2.4v125.2c0,1.3,1.1,2.4,2.4,2.4c1.3,0,2.4-1.1,2.4-2.4V179.5
		C446.2,178.1,445.2,177,443.8,177z"/>
	<path d="M500.7,177c-1.3,0-2.4,1.1-2.4,2.4v125.2c0,1.3,1.1,2.4,2.4,2.4c1.3,0,2.4-1.1,2.4-2.4V179.5
		C503.1,178.1,502,177,500.7,177z"/>
	<g>
		<path d="M614,306.6c-1.1,0-1.9-0.9-1.9-1.9V179.5c0-1.1,0.9-1.9,1.9-1.9s1.9,0.9,1.9,1.9v125.2C616,305.7,615.1,306.6,614,306.6z"
			/>
		<path d="M614,307.1c-1.3,0-2.4-1.1-2.4-2.4V179.5c0-1.3,1.1-2.4,2.4-2.4c1.3,0,2.4,1.1,2.4,2.4v125.2
			C616.5,306,615.4,307.1,614,307.1z M614,178c-0.8,0-1.4,0.6-1.4,1.4v125.2c0,0.8,0.6,1.4,1.4,1.4s1.4-0.6,1.4-1.4V179.5
			C615.5,178.7,614.8,178,614,178z"/>
	</g>
</g>
</svg>
